# Blender 3.3.1
# www.blender.org
mtllib untitled.mtl
o beginStation
v -0.001243 0.577644 -0.623492
v -0.586755 0.577644 -0.623492
v -0.586755 1.043054 -0.623492
v -0.001243 1.043054 -0.623492
v -2.198411 0.000164 0.000000
v -2.198411 0.000164 -0.623492
v -0.001243 0.000164 -0.623492
v -0.001243 0.000164 0.000000
v -0.586755 1.338874 -0.623492
v -0.586755 1.338874 -0.000000
v -0.586755 2.100103 -0.000000
v -0.586755 2.100103 -0.623492
v -0.001243 2.100103 -0.623492
v -0.586755 2.352347 -0.623492
v -0.344847 2.352347 -0.623492
v -0.314900 2.351387 -0.623492
v -0.285181 2.348515 -0.623492
v -0.255916 2.343752 -0.623492
v -0.227327 2.337135 -0.623492
v -0.199634 2.328713 -0.623492
v -0.173045 2.318552 -0.623492
v -0.147764 2.306729 -0.623492
v -0.123982 2.293333 -0.623492
v -0.101882 2.278466 -0.623492
v -0.081631 2.262242 -0.623492
v -0.063383 2.244784 -0.623492
v -0.047277 2.226225 -0.623492
v -0.033436 2.206706 -0.623492
v -0.021964 2.186375 -0.623492
v -0.012951 2.165388 -0.623492
v -0.006463 2.143904 -0.623492
v -0.002550 2.122087 -0.623492
v -0.586755 2.352347 -0.000000
v -0.344847 2.352347 -0.000000
v -0.001243 2.100103 -0.000000
v -0.002550 2.122087 -0.000000
v -0.006463 2.143904 -0.000000
v -0.012951 2.165388 -0.000000
v -0.021964 2.186375 -0.000000
v -0.033436 2.206706 -0.000000
v -0.047277 2.226225 -0.000000
v -0.063383 2.244784 -0.000000
v -0.081631 2.262242 -0.000000
v -0.101882 2.278466 -0.000000
v -0.123982 2.293333 -0.000000
v -0.147764 2.306729 -0.000000
v -0.173045 2.318552 -0.000000
v -0.199634 2.328713 -0.000000
v -0.227327 2.337135 -0.000000
v -0.255916 2.343752 -0.000000
v -0.285181 2.348515 -0.000000
v -0.314900 2.351387 -0.000000
v -0.001243 1.338874 -0.623492
v -0.586755 1.043054 -0.000000
v -0.586755 0.577644 0.000000
v -1.032062 0.577644 -0.623492
v -1.032062 0.577644 0.000000
v -2.198411 0.577644 -0.623492
v -2.206998 0.000444 -0.623492
v -2.215570 0.001284 -0.623492
v -2.224112 0.002684 -0.623492
v -2.232611 0.004639 -0.623492
v -2.241051 0.007148 -0.623492
v -2.249419 0.010206 -0.623492
v -2.257699 0.013807 -0.623492
v -2.265878 0.017945 -0.623492
v -2.273942 0.022614 -0.623492
v -2.281876 0.027805 -0.623492
v -2.289668 0.033509 -0.623492
v -2.297304 0.039718 -0.623492
v -2.304772 0.046419 -0.623492
v -2.312057 0.053602 -0.623492
v -2.319148 0.061254 -0.623492
v -2.326033 0.069363 -0.623492
v -2.332700 0.077914 -0.623492
v -2.339138 0.086893 -0.623492
v -2.345335 0.096284 -0.623492
v -2.351281 0.106072 -0.623492
v -2.356966 0.116240 -0.623492
v -2.362380 0.126770 -0.623492
v -2.367514 0.137645 -0.623492
v -2.372359 0.148845 -0.623492
v -2.376907 0.160352 -0.623492
v -2.381150 0.172146 -0.623492
v -2.385081 0.184206 -0.623492
v -2.388692 0.196513 -0.623492
v -2.391979 0.209046 -0.623492
v -2.394935 0.221782 -0.623492
v -2.397555 0.234700 -0.623492
v -2.399835 0.247778 -0.623492
v -2.401771 0.260994 -0.623492
v -2.403359 0.274325 -0.623492
v -2.404597 0.287748 -0.623492
v -2.405483 0.301240 -0.623492
v -2.406015 0.314779 -0.623492
v -2.406193 0.328341 -0.623492
v -2.406193 0.577644 -0.623492
v -0.809408 0.810349 -0.000000
v -0.809408 0.810349 -0.623492
v -1.600657 2.053102 -0.000000
v -1.823311 1.820397 -0.000000
v -1.600657 2.053102 -0.623492
v -2.045964 1.587693 -0.623492
v -1.823311 1.820397 -0.623492
v -2.045964 1.587693 -0.000000
v -2.178979 1.714962 -0.623492
v -1.956325 1.947667 -0.623492
v -2.198411 0.577644 0.000000
v -2.406193 0.577644 0.000000
v -2.406193 0.328341 0.000000
v -1.613097 2.063309 -0.000000
v -1.627137 2.071667 -0.000000
v -1.642670 2.078113 -0.000000
v -1.659578 2.082597 -0.000000
v -1.677732 2.085086 -0.000000
v -1.696994 2.085560 -0.000000
v -1.717217 2.084017 -0.000000
v -1.738248 2.080467 -0.000000
v -1.759926 2.074937 -0.000000
v -1.782087 2.067471 -0.000000
v -1.804561 2.058124 -0.000000
v -1.827178 2.046968 -0.000000
v -1.849765 2.034088 -0.000000
v -1.872151 2.019581 -0.000000
v -1.894166 2.003558 -0.000000
v -1.915641 1.986142 -0.000000
v -1.936413 1.967464 -0.000000
v -1.956325 1.947667 -0.000000
v -2.178979 1.714962 -0.000000
v -1.936413 1.967464 -0.623492
v -1.627137 2.071667 -0.623492
v -1.613097 2.063309 -0.623492
v -1.659578 2.082597 -0.623492
v -1.642670 2.078113 -0.623492
v -1.696994 2.085560 -0.623492
v -1.677732 2.085086 -0.623492
v -1.738248 2.080467 -0.623492
v -1.717217 2.084017 -0.623492
v -1.782087 2.067471 -0.623492
v -1.759926 2.074937 -0.623492
v -1.827178 2.046968 -0.623492
v -1.804561 2.058124 -0.623492
v -1.872151 2.019581 -0.623492
v -1.849765 2.034088 -0.623492
v -1.915641 1.986142 -0.623492
v -1.894166 2.003558 -0.623492
v -2.406015 0.314779 0.000000
v -2.405483 0.301240 0.000000
v -2.404597 0.287748 0.000000
v -2.403359 0.274325 0.000000
v -2.401771 0.260994 0.000000
v -2.399835 0.247778 0.000000
v -2.397555 0.234700 0.000000
v -2.394935 0.221782 0.000000
v -2.391979 0.209046 0.000000
v -2.388692 0.196514 0.000000
v -2.385081 0.184207 0.000000
v -2.381150 0.172146 0.000000
v -2.376907 0.160352 0.000000
v -2.372359 0.148845 0.000000
v -2.367514 0.137645 0.000000
v -2.362380 0.126770 0.000000
v -2.356966 0.116240 0.000000
v -2.351281 0.106072 0.000000
v -2.345335 0.096285 0.000000
v -2.339138 0.086893 0.000000
v -2.332700 0.077914 0.000000
v -2.326033 0.069363 0.000000
v -2.319148 0.061254 0.000000
v -2.312057 0.053602 0.000000
v -2.304772 0.046419 0.000000
v -2.297304 0.039718 0.000000
v -2.289668 0.033509 0.000000
v -2.281876 0.027805 0.000000
v -2.273942 0.022614 0.000000
v -2.265878 0.017945 0.000000
v -2.257699 0.013807 0.000000
v -2.249419 0.010206 0.000000
v -2.241051 0.007148 0.000000
v -2.232611 0.004640 0.000000
v -2.224112 0.002684 0.000000
v -2.215570 0.001285 0.000000
v -2.206998 0.000444 0.000000
vn -0.0000 -0.0000 -1.0000
vn -0.0000 -1.0000 -0.0000
vn -1.0000 -0.0000 -0.0000
vn -0.0000 0.0001 -1.0000
vn -0.0000 1.0000 -0.0000
vn -0.0000 -0.0000 1.0000
vn 1.0000 -0.0000 -0.0000
vn -0.0000 0.0002 -1.0000
vn -0.0000 -0.0001 -1.0000
vn 0.7058 0.7085 -0.0000
vn -0.7058 -0.7085 -0.0000
vn -0.7225 0.6913 -0.0000
vn -0.6913 -0.7225 -0.0000
vn 0.6343 0.7731 -0.0000
vn 0.5115 0.8593 -0.0000
vn 0.3833 0.9236 -0.0000
vn 0.2563 0.9666 -0.0000
vn 0.2564 0.9666 -0.0000
vn 0.1358 0.9907 -0.0000
vn 0.0246 0.9997 -0.0000
vn -0.0761 0.9971 -0.0000
vn -0.1665 0.9860 -0.0000
vn -0.2471 0.9690 -0.0000
vn -0.2472 0.9690 -0.0000
vn -0.3193 0.9477 -0.0000
vn -0.3840 0.9233 -0.0000
vn -0.4424 0.8968 -0.0000
vn -0.4954 0.8687 -0.0000
vn -0.5438 0.8392 -0.0000
vn -0.5885 0.8085 -0.0000
vn -0.6299 0.7767 -0.0000
vn -0.6686 0.7436 -0.0000
vn -0.7051 0.7091 -0.0000
vn 0.0320 0.9995 -0.0000
vn 0.0962 0.9954 -0.0000
vn 0.1606 0.9870 -0.0000
vn 0.2255 0.9742 -0.0000
vn 0.2909 0.9567 -0.0000
vn 0.3570 0.9341 -0.0000
vn 0.4236 0.9058 -0.0000
vn 0.4237 0.9058 -0.0000
vn 0.4908 0.8713 -0.0000
vn 0.5581 0.8297 -0.0000
vn 0.5582 0.8297 -0.0000
vn 0.6252 0.7804 -0.0000
vn 0.6913 0.7226 -0.0000
vn 0.7553 0.6554 -0.0000
vn 0.8157 0.5784 -0.0000
vn 0.8709 0.4914 -0.0000
vn 0.9188 0.3946 -0.0000
vn 0.9573 0.2891 -0.0000
vn 0.9843 0.1765 -0.0000
vn 0.9982 0.0594 -0.0000
vn 0.0001 -0.0000 1.0000
vn -0.0326 -0.9995 -0.0000
vn -0.0976 -0.9952 -0.0000
vn -0.1617 -0.9868 -0.0000
vn -0.2243 -0.9745 -0.0000
vn -0.2849 -0.9586 -0.0000
vn -0.3432 -0.9393 -0.0000
vn -0.3988 -0.9170 -0.0000
vn -0.4515 -0.8923 -0.0000
vn -0.5011 -0.8654 -0.0000
vn -0.5475 -0.8368 -0.0000
vn -0.5907 -0.8069 -0.0000
vn -0.6308 -0.7759 -0.0000
vn -0.6679 -0.7442 -0.0000
vn -0.7021 -0.7121 -0.0000
vn -0.7335 -0.6797 -0.0000
vn -0.7623 -0.6472 -0.0000
vn -0.7886 -0.6149 -0.0000
vn -0.8127 -0.5827 -0.0000
vn -0.8347 -0.5508 -0.0000
vn -0.8547 -0.5192 -0.0000
vn -0.8728 -0.4880 -0.0000
vn -0.8893 -0.4573 -0.0000
vn -0.9043 -0.4269 -0.0000
vn -0.9178 -0.3970 -0.0000
vn -0.9300 -0.3676 -0.0000
vn -0.9410 -0.3385 -0.0000
vn -0.9508 -0.3099 -0.0000
vn -0.9595 -0.2816 -0.0000
vn -0.9673 -0.2537 -0.0000
vn -0.9741 -0.2261 -0.0000
vn -0.9800 -0.1988 -0.0000
vn -0.9851 -0.1717 -0.0000
vn -0.9894 -0.1449 -0.0000
vn -0.9930 -0.1183 -0.0000
vn -0.9958 -0.0918 -0.0000
vn -0.9979 -0.0655 -0.0000
vn -0.9992 -0.0393 -0.0000
vn -0.9999 -0.0131 -0.0000
s 0
f 1//1 2//1 3//1
f 1//1 3//1 4//1
f 5//2 6//2 7//2
f 5//2 7//2 8//2
f 9//3 10//3 11//3
f 9//3 11//3 12//3
f 12//1 14//1 15//1
f 15//1 16//1 17//1
f 17//1 18//1 19//1
f 19//4 20//4 21//4
f 21//1 22//1 23//1
f 23//1 24//1 25//1
f 25//1 26//1 27//1
f 27//1 28//1 29//1
f 29//1 30//1 31//1
f 31//1 32//1 13//1
f 13//1 12//1 15//1
f 15//1 17//1 19//1
f 19//1 21//1 23//1
f 23//1 25//1 27//1
f 27//1 29//1 31//1
f 31//1 13//1 15//1
f 15//1 19//1 23//1
f 23//1 27//1 31//1
f 15//1 23//1 31//1
f 33//5 34//5 15//5
f 33//5 15//5 14//5
f 35//6 36//6 37//6
f 37//6 38//6 39//6
f 39//6 40//6 41//6
f 41//6 42//6 43//6
f 43//6 44//6 45//6
f 45//6 46//6 47//6
f 47//6 48//6 49//6
f 49//6 50//6 51//6
f 51//6 52//6 34//6
f 34//6 33//6 11//6
f 11//6 35//6 37//6
f 37//6 39//6 41//6
f 41//6 43//6 45//6
f 45//6 47//6 49//6
f 49//6 51//6 34//6
f 34//6 11//6 37//6
f 37//6 41//6 45//6
f 45//6 49//6 34//6
f 37//6 45//6 34//6
f 4//7 53//7 13//7
f 13//7 35//7 8//7
f 8//7 7//7 1//7
f 4//7 13//7 8//7
f 4//7 8//7 1//7
f 12//3 11//3 33//3
f 12//3 33//3 14//3
f 53//1 9//1 12//1
f 53//1 12//1 13//1
f 3//3 54//3 10//3
f 3//3 10//3 9//3
f 55//5 2//5 56//5
f 55//5 56//5 57//5
f 6//1 59//1 60//1
f 60//1 61//1 62//1
f 62//1 63//1 64//1
f 64//1 65//1 66//1
f 66//8 67//8 68//8
f 68//1 69//1 70//1
f 70//1 71//1 72//1
f 72//1 73//1 74//1
f 74//1 75//1 76//1
f 76//1 77//1 78//1
f 78//1 79//1 80//1
f 80//9 81//9 82//9
f 82//9 83//9 84//9
f 84//1 85//1 86//1
f 86//1 87//1 88//1
f 88//1 89//1 90//1
f 90//1 91//1 92//1
f 92//1 93//1 94//1
f 94//1 95//1 96//1
f 96//1 97//1 58//1
f 58//1 6//1 60//1
f 60//1 62//1 64//1
f 64//1 66//1 68//1
f 68//1 70//1 72//1
f 72//1 74//1 76//1
f 76//1 78//1 80//1
f 80//1 82//1 84//1
f 84//1 86//1 88//1
f 88//1 90//1 92//1
f 92//1 94//1 96//1
f 96//1 58//1 60//1
f 60//1 64//1 68//1
f 68//1 72//1 76//1
f 76//1 80//1 84//1
f 84//1 88//1 92//1
f 92//1 96//1 60//1
f 60//1 68//1 76//1
f 76//1 84//1 92//1
f 60//1 76//1 92//1
f 2//3 55//3 54//3
f 2//3 54//3 3//3
f 4//1 3//1 9//1
f 4//1 9//1 53//1
f 57//6 55//6 98//6
f 55//6 54//6 98//6
f 2//1 56//1 99//1
f 2//1 99//1 3//1
f 98//6 54//6 100//6
f 98//6 100//6 101//6
f 54//10 3//10 102//10
f 54//10 102//10 100//10
f 99//1 56//1 103//1
f 99//1 103//1 104//1
f 56//11 57//11 105//11
f 56//11 105//11 103//11
f 3//1 99//1 104//1
f 3//1 104//1 102//1
f 104//1 103//1 106//1
f 104//1 106//1 107//1
f 57//6 98//6 101//6
f 57//6 101//6 105//6
f 8//6 35//6 11//6
f 10//7 54//7 55//7
f 8//6 11//6 10//6
f 108//6 5//6 8//6
f 55//5 57//5 108//5
f 8//6 10//6 55//6
f 55//6 108//6 8//6
f 2//1 1//1 7//1
f 7//1 6//1 58//1
f 56//1 2//1 7//1
f 7//1 58//1 56//1
f 109//3 97//3 96//3
f 109//3 96//3 110//3
f 100//6 111//6 112//6
f 112//6 113//6 114//6
f 114//6 115//6 116//6
f 116//6 117//6 118//6
f 118//6 119//6 120//6
f 120//6 121//6 122//6
f 122//6 123//6 124//6
f 124//6 125//6 126//6
f 128//6 101//6 100//6
f 100//6 112//6 114//6
f 114//6 116//6 118//6
f 118//6 120//6 122//6
f 122//6 124//6 126//6
f 126//6 127//6 128//6
f 128//6 100//6 114//6
f 114//6 118//6 122//6
f 122//6 126//6 128//6
f 114//6 122//6 128//6
f 129//12 128//12 107//12
f 106//12 129//12 107//12
f 105//6 101//6 128//6
f 105//6 128//6 129//6
f 102//1 104//1 107//1
f 131//1 132//1 102//1
f 133//1 134//1 131//1
f 135//1 136//1 133//1
f 137//1 138//1 135//1
f 139//1 140//1 137//1
f 141//1 142//1 139//1
f 143//1 144//1 141//1
f 145//1 146//1 143//1
f 107//1 130//1 145//1
f 131//1 102//1 107//1
f 135//1 133//1 131//1
f 139//1 137//1 135//1
f 143//1 141//1 139//1
f 107//1 145//1 143//1
f 135//1 131//1 107//1
f 143//1 139//1 135//1
f 107//1 143//1 135//1
f 103//13 105//13 129//13
f 103//13 129//13 106//13
f 100//14 102//14 132//14
f 100//14 132//14 111//14
f 111//15 132//15 131//15
f 111//15 131//15 112//15
f 112//16 131//16 134//16
f 112//16 134//16 113//16
f 113//17 134//17 133//17
f 113//18 133//18 114//18
f 114//19 133//19 136//19
f 114//19 136//19 115//19
f 115//20 136//20 135//20
f 115//20 135//20 116//20
f 116//21 135//21 138//21
f 116//21 138//21 117//21
f 117//22 138//22 137//22
f 117//22 137//22 118//22
f 118//23 137//23 140//23
f 118//24 140//24 119//24
f 119//25 140//25 139//25
f 119//25 139//25 120//25
f 120//26 139//26 142//26
f 120//26 142//26 121//26
f 121//27 142//27 141//27
f 121//27 141//27 122//27
f 122//28 141//28 144//28
f 122//28 144//28 123//28
f 123//29 144//29 143//29
f 123//29 143//29 124//29
f 124//30 143//30 146//30
f 124//30 146//30 125//30
f 125//31 146//31 145//31
f 125//31 145//31 126//31
f 126//32 145//32 130//32
f 126//32 130//32 127//32
f 127//33 130//33 107//33
f 127//33 107//33 128//33
f 57//5 56//5 58//5
f 57//5 58//5 108//5
f 15//34 34//34 52//34
f 15//34 52//34 16//34
f 16//35 52//35 51//35
f 16//35 51//35 17//35
f 17//36 51//36 50//36
f 17//36 50//36 18//36
f 18//37 50//37 49//37
f 18//37 49//37 19//37
f 19//38 49//38 48//38
f 19//38 48//38 20//38
f 20//39 48//39 47//39
f 20//39 47//39 21//39
f 21//40 47//40 46//40
f 21//41 46//41 22//41
f 22//42 46//42 45//42
f 22//42 45//42 23//42
f 23//43 45//43 44//43
f 23//44 44//44 24//44
f 24//45 44//45 43//45
f 24//45 43//45 25//45
f 25//46 43//46 42//46
f 25//46 42//46 26//46
f 26//47 42//47 41//47
f 26//47 41//47 27//47
f 27//48 41//48 40//48
f 27//48 40//48 28//48
f 28//49 40//49 39//49
f 28//49 39//49 29//49
f 29//50 39//50 38//50
f 29//50 38//50 30//50
f 30//51 38//51 37//51
f 30//51 37//51 31//51
f 31//52 37//52 36//52
f 31//52 36//52 32//52
f 32//53 36//53 35//53
f 32//53 35//53 13//53
f 108//5 58//5 97//5
f 108//5 97//5 109//5
f 108//6 109//6 110//6
f 110//6 147//6 148//6
f 148//54 149//54 150//54
f 150//6 151//6 152//6
f 152//6 153//6 154//6
f 154//6 155//6 156//6
f 156//6 157//6 158//6
f 158//6 159//6 160//6
f 160//6 161//6 162//6
f 162//6 163//6 164//6
f 164//54 165//54 166//54
f 166//6 167//6 168//6
f 168//6 169//6 170//6
f 170//6 171//6 172//6
f 172//6 173//6 174//6
f 174//6 175//6 176//6
f 176//6 177//6 178//6
f 178//6 179//6 180//6
f 180//6 181//6 182//6
f 182//6 183//6 5//6
f 5//6 108//6 110//6
f 110//6 148//6 150//6
f 150//6 152//6 154//6
f 154//6 156//6 158//6
f 158//6 160//6 162//6
f 162//6 164//6 166//6
f 166//6 168//6 170//6
f 170//6 172//6 174//6
f 174//6 176//6 178//6
f 178//6 180//6 182//6
f 182//6 5//6 110//6
f 110//6 150//6 154//6
f 154//6 158//6 162//6
f 162//6 166//6 170//6
f 170//6 174//6 178//6
f 178//6 182//6 110//6
f 110//6 154//6 162//6
f 162//6 170//6 178//6
f 110//6 162//6 178//6
f 6//55 5//55 183//55
f 6//55 183//55 59//55
f 59//56 183//56 182//56
f 59//56 182//56 60//56
f 60//57 182//57 181//57
f 60//57 181//57 61//57
f 61//58 181//58 180//58
f 61//58 180//58 62//58
f 62//59 180//59 179//59
f 62//59 179//59 63//59
f 63//60 179//60 178//60
f 63//60 178//60 64//60
f 64//61 178//61 177//61
f 64//61 177//61 65//61
f 65//62 177//62 176//62
f 65//62 176//62 66//62
f 66//63 176//63 175//63
f 66//63 175//63 67//63
f 67//64 175//64 174//64
f 67//64 174//64 68//64
f 68//65 174//65 173//65
f 68//65 173//65 69//65
f 69//66 173//66 172//66
f 69//66 172//66 70//66
f 70//67 172//67 171//67
f 70//67 171//67 71//67
f 71//68 171//68 170//68
f 71//68 170//68 72//68
f 72//69 170//69 169//69
f 72//69 169//69 73//69
f 73//70 169//70 168//70
f 73//70 168//70 74//70
f 74//71 168//71 167//71
f 74//71 167//71 75//71
f 75//72 167//72 166//72
f 75//72 166//72 76//72
f 76//73 166//73 165//73
f 76//73 165//73 77//73
f 77//74 165//74 164//74
f 77//74 164//74 78//74
f 78//75 164//75 163//75
f 78//75 163//75 79//75
f 79//76 163//76 162//76
f 79//76 162//76 80//76
f 80//77 162//77 161//77
f 80//77 161//77 81//77
f 81//78 161//78 160//78
f 81//78 160//78 82//78
f 82//79 160//79 159//79
f 82//79 159//79 83//79
f 83//80 159//80 158//80
f 83//80 158//80 84//80
f 84//81 158//81 157//81
f 84//81 157//81 85//81
f 85//82 157//82 156//82
f 85//82 156//82 86//82
f 86//83 156//83 155//83
f 86//83 155//83 87//83
f 87//84 155//84 154//84
f 87//84 154//84 88//84
f 88//85 154//85 153//85
f 88//85 153//85 89//85
f 89//86 153//86 152//86
f 89//86 152//86 90//86
f 90//87 152//87 151//87
f 90//87 151//87 91//87
f 91//88 151//88 150//88
f 91//88 150//88 92//88
f 92//89 150//89 149//89
f 92//89 149//89 93//89
f 93//90 149//90 148//90
f 93//90 148//90 94//90
f 94//91 148//91 147//91
f 94//91 147//91 95//91
f 95//92 147//92 110//92
f 95//92 110//92 96//92
